<svg id="Layer_3" data-name="Layer 3" xmlns="http://www.w3.org/2000/svg" viewBox="0 0 931.18 927.11"><defs><style>.cls-1{fill:#1e2326;}.cls-2{fill:#666;}.cls-3{fill:#fff;}.cls-4{fill:#0d0d0d;}.cls-5{fill:#4e4e50;}.cls-6{fill:#5bba49;}</style></defs><title>logo</title><path class="cls-1" d="M575.36,370.49l-163-23.73-68.71,77.49-1.26.95c15,2.9,114.63,22.33,144.42,48.82l1.87,1.66,14.56,53.39L381.76,568l69.57,207.54,5,14.32L483,786.16l37.71,11.89,19.91-25.81,38.49,13.14L679.92,708.9l31.81,9.74,85.48-115,35.52-10.15-23.94-19.59,0,0.08ZM543.54,487.73A46.72,46.72,0,1,1,590.26,441,46.77,46.77,0,0,1,543.54,487.73Z" transform="translate(-42.91 -85.89)"/><path class="cls-2" d="M476.29,482.33c-24.27-19.37-116-39.8-147.92-46.55l-93.53,70.5-4.47,6.39,34.7-9.92L444,499.39l19-3.26,2.84,16.59-20.27,3.47h-0.64l-180-1.89-27,4.14H245l129.3,34.3L482.8,518Z" transform="translate(-42.91 -85.89)"/><path class="cls-3" d="M543.54,402.72a38.3,38.3,0,1,0,38.3,38.3A38.3,38.3,0,0,0,543.54,402.72Zm0,70.92A32.62,32.62,0,1,1,576.16,441,32.62,32.62,0,0,1,543.54,473.63Z" transform="translate(-42.91 -85.89)"/><circle class="cls-4" cx="500.64" cy="355.13" r="32.62"/><path class="cls-5" d="M543.54,394.3A46.72,46.72,0,1,0,590.26,441,46.77,46.77,0,0,0,543.54,394.3Zm0,85a38.3,38.3,0,1,1,38.3-38.3A38.3,38.3,0,0,1,543.54,479.32Z" transform="translate(-42.91 -85.89)"/><path class="cls-5" d="M816.65,547.4L589.16,349l-2.8-2.44L402.54,319.8l-76.07,85.8-110,82.93-38.62,55.17h63.85l115.57,30.66L417.5,754.12h0l15.26,66.27,48.62-7.73,48.79,15.38,19.63-25.45,34,11.61L685,737.41l36.58,11.2,91.12-122.55,73-20.87ZM245,518.46h-7.06l27-4.14,180,1.89h0.64l20.27-3.47L463,496.13l-19,3.26-178.91,3.38-34.7,9.92,4.47-6.39,93.53-70.5C360.26,442.53,452,463,476.29,482.33L482.8,518,374.26,552.76Zm552.25,85.21-85.48,115-31.81-9.74L579.16,785.39l-38.49-13.14-19.91,25.81L483,786.16l-26.77,3.74-5-14.32L381.76,568l121.52-39-14.56-53.39L486.85,474c-29.79-26.48-129.45-45.92-144.42-48.82l1.26-.95,68.71-77.49,163,23.73L808.75,574l0-.08,23.94,19.59Z" transform="translate(-42.91 -85.89)"/><path class="cls-6" d="M432.17,324.11s4.14-22.75,6.45-34.09q5-23.61,11.33-47c4.18-15.6,9.1-31,14.61-46.31a405.8,405.8,0,0,1,19.23-45.13,227.73,227.73,0,0,1,12.44-21.67,157.5,157.5,0,0,1,15.61-20.45,82,82,0,0,1,21.5-17.23l3.28-1.69,3.52-1.42a53.85,53.85,0,0,1,7.43-2.24,46.84,46.84,0,0,1,31.23,4.22,63,63,0,0,1,12.49,8.33,95.59,95.59,0,0,1,9.92,10,125.46,125.46,0,0,1,8.09,10.81A176.72,176.72,0,0,1,622,143c3.68,7.7,6.85,15.52,9.72,23.39,11.4,31.49,18.43,63.67,23.73,95.93s8.5,64.7,10.58,97.13,2.6,64.9,2.32,97.32-1.94,64.8-4.29,97.11-5.92,64.53-10.33,96.64-10,64.09-16.77,95.86-14.73,63.34-24.57,94.48-21.24,61.93-36.29,91.59a272,272,0,0,1-26.56,43,140.21,140.21,0,0,1-17.89,19.5,83.7,83.7,0,0,1-11.1,8.47,65.55,65.55,0,0,1-13.23,6.6,50.5,50.5,0,0,1-15.44,2.95,32.35,32.35,0,0,1-4-.07c-0.67,0-1.34-.07-2-0.14l-2-.31c-1.32-.23-2.66-0.41-4-0.72l-3.82-1.13a26.54,26.54,0,0,1-3.66-1.41c-1.18-.54-2.41-1-3.52-1.62a56.38,56.38,0,0,1-6.37-4l-3-2.17-2.69-2.36a64.5,64.5,0,0,1-5-4.94,109,109,0,0,1-15.13-21.71,195.33,195.33,0,0,1-10.51-23,337.57,337.57,0,0,1-13.71-47.31q-5.17-23.88-8.11-47.94T400,806c-0.89-16.07-1.53-32.13-1.56-48.19,2.16,15.91,4.36,31.79,7.09,47.56s5.55,31.49,9,47,7.35,31,12,46c2.28,7.56,4.82,15,7.48,22.37s5.69,14.54,8.95,21.53a187,187,0,0,0,10.85,20,88.65,88.65,0,0,0,13.41,16.82c5,4.63,10.32,8.26,15.62,9.56a23.87,23.87,0,0,0,15.85-1.4,53.42,53.42,0,0,0,15.6-11.18A114.74,114.74,0,0,0,528,959.59c8.45-12.17,15.56-25.8,22-39.79s12.06-28.57,17.18-43.34,9.8-29.76,14.05-44.9q12.6-45.48,21.46-92.16c5.93-31.06,11-62.32,15-93.76q6.18-47.12,9.66-94.58,3.72-47.41,4.69-94.94,1.15-47.5-.81-94.9c-1.28-31.57-3.78-63.06-7.8-94.21q-3-23.36-7.62-46.32a414,414,0,0,0-11.37-45c-4.71-14.52-10.2-28.77-17.59-41.1a99.63,99.63,0,0,0-5.87-8.74,70.79,70.79,0,0,0-6.59-7.4c-4.65-4.32-9.56-7.34-14.61-8.37a25,25,0,0,0-7.86-.21,30.53,30.53,0,0,0-4.13,1l-2.11.68-2.11,1c-5.68,2.59-11.31,6.83-16.53,11.8-10.48,10.07-19.46,22.75-27.51,36-16.22,26.63-28.61,56.08-39.91,85.82-5.63,14.91-10.78,30-15.64,45.28-3.57,10.9-10.13,32.92-10.13,32.92Z" transform="translate(-42.91 -85.89)"/><path class="cls-6" d="M710.19,336.27c16-5.75,32.2-10.84,48.54-15.6,16.39-4.61,32.94-8.75,49.73-12.15a412,412,0,0,1,51.11-7.31,259,259,0,0,1,26.22-.66,159.2,159.2,0,0,1,26.75,2.83,87.33,87.33,0,0,1,26.88,9.8c1.1,0.61,2.15,1.39,3.22,2.09a29.89,29.89,0,0,1,3.14,2.3l3,2.54,2.84,2.9A47.56,47.56,0,0,1,960.56,337,49.14,49.14,0,0,1,964,353a67.05,67.05,0,0,1-1.11,15.44,108.43,108.43,0,0,1-9.41,27.09c-8.2,16.61-18.75,31.08-29.93,44.71a457.06,457.06,0,0,1-35.76,38.33c-25,24.11-51.72,46-79.29,66.62s-56.06,39.79-85.11,58-58.81,35.27-88.94,51.55-60.88,31.39-92,45.81-62.69,27.69-94.7,40-64.5,23.52-97.52,33.25-66.51,18.18-100.78,24c-17.13,2.92-34.43,5.29-52,6.55s-35.4,1.5-53.64-.51a144.52,144.52,0,0,1-27.65-5.58c-9.25-2.91-18.77-7.14-27.39-14.2a52.27,52.27,0,0,1-11.29-12.95,43.27,43.27,0,0,1-3.84-7.93,38,38,0,0,1-1.44-4.14l-1-4.23a25,25,0,0,1-.62-4.22l-0.36-4.2c0-2.72.07-5.47,0.35-8.11a78.56,78.56,0,0,1,3.27-14.93,119,119,0,0,1,12-25.57,206.28,206.28,0,0,1,15.54-21.95,371.29,371.29,0,0,1,35.91-38c25.37-23.46,52.61-44.26,80.79-63.47,13.3-9,40.39-26.22,40.39-26.22l7.5,2-1.71,1.31Q244.15,566.83,224.66,583c-25.92,21.57-51.11,44-73.8,68.37-11.3,12.18-22.12,24.75-31.42,38a201.25,201.25,0,0,0-12.63,20.32,94.46,94.46,0,0,0-8.43,20.83c-1.75,6.84-2.27,13.51-.8,18.71,0.2,0.64.38,1.29,0.55,1.94a13.18,13.18,0,0,0,.78,1.8,16.6,16.6,0,0,0,1.85,3.39,24.64,24.64,0,0,0,5.71,5.79c4.72,3.46,11,6.16,18,7.93a123.35,123.35,0,0,0,22.29,3.44c15.53,1.09,31.72.24,47.88-1.54s32.43-4.44,48.61-7.74a952.92,952.92,0,0,0,96.31-25.57q47.69-15.18,94.4-33.78,46.74-18.34,92.38-39.55Q572,644.47,616.57,621c29.74-15.47,59-31.93,87.71-49.07s56.88-35.29,84.28-54.36q20.5-14.36,40.25-29.63c13.17-10.16,26-20.68,38.36-31.66a474.9,474.9,0,0,0,35.22-34.39c10.91-12,21-24.73,28.64-38.12a84.71,84.71,0,0,0,8.51-20.31c1.65-6.73,1.88-13.16.11-18.64a25.55,25.55,0,0,0-4.19-7.68,33.22,33.22,0,0,0-7.09-6.51c-5.67-3.85-12.71-6.72-20.17-8.82-15.05-4.19-31.62-5.32-48.11-5.52a457.81,457.81,0,0,0-50,2.78c-16.72,1.75-33.4,4.31-50,7.27S726.78,332.67,710.19,336.27Z" transform="translate(-42.91 -85.89)"/><path class="cls-6" d="M972.82,704.08c-2.64-11.87-8-21.52-13.87-30.19a182,182,0,0,0-19.43-23.52,292.19,292.19,0,0,0-21.62-20.17c-10.26-8.7-20.87-16.81-32.3-25L861.92,612a521.84,521.84,0,0,1,41,34.83c6.65,6.36,13,12.91,19,19.7a157.68,157.68,0,0,1,15.75,21.14c4.42,7.23,7.76,14.82,8.9,21.6a24.19,24.19,0,0,1,0,9.16,18.25,18.25,0,0,1-3.42,7.26c-3.33,4.46-9.57,8.38-16.93,11.18a90.35,90.35,0,0,1-11.7,3.61c-4.08,1-8.3,1.83-12.61,2.47-17.26,2.62-35.54,2.86-53.79,2.16s-36.72-2.42-55.11-4.87a1093.38,1093.38,0,0,1-109.9-20.86q-27.29-6.57-54.41-14t-54-16Q521,672.59,468.21,652.69,415.43,633,363.95,610.12q-51.51-22.68-101.2-48.92a1031.1,1031.1,0,0,1-96-57.1A540,540,0,0,1,122.6,471c-7-5.85-13.7-11.91-20-18.21a179.22,179.22,0,0,1-17.28-19.65,81.69,81.69,0,0,1-11.7-20.65,32,32,0,0,1-2-9.51A19.35,19.35,0,0,1,73,395.06a21.73,21.73,0,0,1,4.95-7,41.36,41.36,0,0,1,8.66-6.17,96.75,96.75,0,0,1,23.38-8.46c17.07-4,35.5-5.4,53.93-5.86s37.16,0.4,55.84,1.8,37.4,3.44,56.07,6,37.29,5.74,55.91,9q5.84,1,11.67,2.16c4.27-4.73,7.11-8,7.15-8.08q-8.22-2.32-16.48-4.56c-18.4-5-37-9.36-55.69-13.33s-37.56-7.38-56.59-10.12a571.37,571.37,0,0,0-57.71-5.34c-9.73-.36-19.53-0.36-29.4.11a229.24,229.24,0,0,0-29.91,3.27C94.69,350.4,84.46,353,74.3,358a68.49,68.49,0,0,0-14.86,9.7,49.76,49.76,0,0,0-12,15.6A47.75,47.75,0,0,0,42.91,403a60.5,60.5,0,0,0,2.74,18.43c3.47,11.3,9,20.78,14.88,29.42a209.47,209.47,0,0,0,19.39,23.79c6.85,7.36,14,14.27,21.33,20.88a556.47,556.47,0,0,0,45.85,36.56c31.49,22.77,64.53,42.75,98.16,61.45s68.15,35.58,103,51.52q52.46,23.64,106.29,43.9t108.89,36.95c36.74,11,73.82,21,111.4,29.22s75.54,15,114.13,19c19.28,2,38.73,3.32,58.36,3.44s39.48-.86,59.65-4.64c5-.94,10.1-2.1,15.19-3.56a114.62,114.62,0,0,0,15.25-5.45,82.43,82.43,0,0,0,15-8.46,55.47,55.47,0,0,0,13.4-13.46,46,46,0,0,0,7.57-18.72A51.41,51.41,0,0,0,972.82,704.08Z" transform="translate(-42.91 -85.89)"/></svg>